<svg xmlns="http://www.w3.org/2000/svg" viewBox="0 0 64 64">
  <!-- Fondo brutalista -->
  <rect x="1.5" y="1.5" width="61" height="61" rx="10" fill="#a8a4f4" stroke="#000" stroke-width="3"/>

  <g stroke="#000" stroke-width="2.6" stroke-linecap="round" stroke-linejoin="round">
    <!-- Hemisferio izquierdo -->
    <path fill="#f472b6" d="M30 13c-4.2-2.6-9.6-1.6-11.7 2.3-3.6-.4-6.6 2.2-6.6 5.6 0 .9.2 1.7.6 2.5-2.5 1.5-3.6 4.6-2.5 7.3-1.9 1.9-2.2 5-.5 7.2-.9 2.9.7 6 3.6 7 .6 3.4 3.9 5.7 7.4 5.1 1.6 2.6 5 3.5 7.8 2.1 1 .7 1.9 1.1 1.9 1.1V13z"/>
    <!-- Hemisferio derecho -->
    <path fill="#4ade80" d="M34 13c4.2-2.6 9.6-1.6 11.7 2.3 3.6-.4 6.6 2.2 6.6 5.6 0 .9-.2 1.7-.6 2.5 2.5 1.5 3.6 4.6 2.5 7.3 1.9 1.9 2.2 5 .5 7.2.9 2.9-.7 6-3.6 7-.6 3.4-3.9 5.7-7.4 5.1-1.6 2.6-5 3.5-7.8 2.1-1 .7-1.9 1.1-1.9 1.1V13z"/>
    <!-- Surco central -->
    <path fill="none" d="M32 13v40"/>
    <!-- Circunvoluciones izquierda -->
    <path fill="none" d="M24 20c-3 1-4 4-2 6M20 30c-3 .5-4 3.5-1.5 5.5M26 38c-2.5 1.5-2.5 4.5 0 6"/>
    <!-- Circunvoluciones derecha -->
    <path fill="none" d="M40 20c3 1 4 4 2 6M44 30c3 .5 4 3.5 1.5 5.5M38 38c2.5 1.5 2.5 4.5 0 6"/>
  </g>

  <!-- Tallo cerebral -->
  <path d="M32 53v5" stroke="#000" stroke-width="3" stroke-linecap="round"/>
</svg>
